<mxfile host="app.diagrams.net" modified="2023-08-07T00:20:59.405Z" agent="Mozilla/5.0 (Windows NT 10.0; Win64; x64) AppleWebKit/537.36 (KHTML, like Gecko) Chrome/115.0.0.0 Safari/537.36" etag="x6sCU-3VaWgVDd2Fd7Vk" version="21.6.6" type="github">
  <diagram name="페이지-1" id="NogYiFt6grbeuDelkKtF">
    <mxGraphModel dx="1235" dy="-503" grid="1" gridSize="10" guides="1" tooltips="1" connect="1" arrows="1" fold="1" page="1" pageScale="1" pageWidth="827" pageHeight="1169" math="0" shadow="0">
      <root>
        <mxCell id="0" />
        <mxCell id="1" parent="0" />
        <mxCell id="7XqZdIhTyuAvpvpUgryh-1" value="나 ( = 혜진)&amp;nbsp;" style="shape=umlActor;verticalLabelPosition=bottom;verticalAlign=top;html=1;" parent="1" vertex="1">
          <mxGeometry x="10" y="2260" width="60" height="97.5" as="geometry" />
        </mxCell>
        <mxCell id="7XqZdIhTyuAvpvpUgryh-2" value="&lt;font style=&quot;font-size: 11px;&quot;&gt;산책한다&lt;br&gt;&lt;/font&gt;" style="ellipse;whiteSpace=wrap;html=1;" parent="1" vertex="1">
          <mxGeometry x="150" y="2193.07" width="99.63" height="50" as="geometry" />
        </mxCell>
        <mxCell id="7XqZdIhTyuAvpvpUgryh-3" value="" style="edgeStyle=orthogonalEdgeStyle;rounded=0;orthogonalLoop=1;jettySize=auto;html=1;" parent="1" source="7XqZdIhTyuAvpvpUgryh-4" target="7XqZdIhTyuAvpvpUgryh-27" edge="1">
          <mxGeometry relative="1" as="geometry" />
        </mxCell>
        <mxCell id="7XqZdIhTyuAvpvpUgryh-4" value="트랙을 걷는다" style="ellipse;whiteSpace=wrap;html=1;" parent="1" vertex="1">
          <mxGeometry x="410.92" y="2022.43" width="100" height="50" as="geometry" />
        </mxCell>
        <mxCell id="7XqZdIhTyuAvpvpUgryh-5" value="" style="edgeStyle=orthogonalEdgeStyle;rounded=0;orthogonalLoop=1;jettySize=auto;html=1;" parent="1" source="7XqZdIhTyuAvpvpUgryh-6" target="7XqZdIhTyuAvpvpUgryh-4" edge="1">
          <mxGeometry relative="1" as="geometry" />
        </mxCell>
        <mxCell id="7XqZdIhTyuAvpvpUgryh-6" value="트랙을 발견한다" style="ellipse;whiteSpace=wrap;html=1;" parent="1" vertex="1">
          <mxGeometry x="290.92" y="2022.43" width="100" height="50" as="geometry" />
        </mxCell>
        <mxCell id="7XqZdIhTyuAvpvpUgryh-7" value="빨리 걷는다" style="ellipse;whiteSpace=wrap;html=1;" parent="1" vertex="1">
          <mxGeometry x="351.42" y="1912.43" width="80" height="55" as="geometry" />
        </mxCell>
        <mxCell id="7XqZdIhTyuAvpvpUgryh-8" value="천천히 걷는다" style="ellipse;whiteSpace=wrap;html=1;" parent="1" vertex="1">
          <mxGeometry x="480.42" y="1912.43" width="90" height="50" as="geometry" />
        </mxCell>
        <mxCell id="7XqZdIhTyuAvpvpUgryh-9" value="&amp;lt;&amp;lt;extend&amp;gt;&amp;gt;" style="html=1;verticalAlign=bottom;labelBackgroundColor=none;endArrow=open;endFill=0;dashed=1;rounded=0;exitX=0.5;exitY=1;exitDx=0;exitDy=0;" parent="1" source="7XqZdIhTyuAvpvpUgryh-7" edge="1">
          <mxGeometry x="-0.1289" y="-4" width="160" relative="1" as="geometry">
            <mxPoint x="399.8400000000001" y="1962.4250000000002" as="sourcePoint" />
            <mxPoint x="432.92" y="2027.43" as="targetPoint" />
            <mxPoint as="offset" />
          </mxGeometry>
        </mxCell>
        <mxCell id="7XqZdIhTyuAvpvpUgryh-10" value="&amp;lt;&amp;lt;extend&amp;gt;&amp;gt;" style="html=1;verticalAlign=bottom;labelBackgroundColor=none;endArrow=open;endFill=0;dashed=1;rounded=0;entryX=0.78;entryY=0.06;entryDx=0;entryDy=0;entryPerimeter=0;" parent="1" edge="1">
          <mxGeometry width="160" relative="1" as="geometry">
            <mxPoint x="512.4200000000001" y="1962.43" as="sourcePoint" />
            <mxPoint x="488.92" y="2027.43" as="targetPoint" />
          </mxGeometry>
        </mxCell>
        <mxCell id="7XqZdIhTyuAvpvpUgryh-11" value="" style="edgeStyle=orthogonalEdgeStyle;rounded=0;orthogonalLoop=1;jettySize=auto;html=1;" parent="1" source="7XqZdIhTyuAvpvpUgryh-12" target="7XqZdIhTyuAvpvpUgryh-14" edge="1">
          <mxGeometry relative="1" as="geometry" />
        </mxCell>
        <mxCell id="7XqZdIhTyuAvpvpUgryh-12" value="벤치로 걸어간다" style="ellipse;whiteSpace=wrap;html=1;" parent="1" vertex="1">
          <mxGeometry x="652.4200000000001" y="2022.43" width="90" height="50" as="geometry" />
        </mxCell>
        <mxCell id="7XqZdIhTyuAvpvpUgryh-57" value="" style="edgeStyle=orthogonalEdgeStyle;rounded=0;orthogonalLoop=1;jettySize=auto;html=1;" parent="1" source="7XqZdIhTyuAvpvpUgryh-14" target="7XqZdIhTyuAvpvpUgryh-35" edge="1">
          <mxGeometry relative="1" as="geometry" />
        </mxCell>
        <mxCell id="7XqZdIhTyuAvpvpUgryh-14" value="의자에 앉는다" style="ellipse;whiteSpace=wrap;html=1;" parent="1" vertex="1">
          <mxGeometry x="768.42" y="2027" width="110" height="40" as="geometry" />
        </mxCell>
        <mxCell id="7XqZdIhTyuAvpvpUgryh-15" value="" style="edgeStyle=orthogonalEdgeStyle;rounded=0;orthogonalLoop=1;jettySize=auto;html=1;" parent="1" source="7XqZdIhTyuAvpvpUgryh-16" target="7XqZdIhTyuAvpvpUgryh-33" edge="1">
          <mxGeometry relative="1" as="geometry" />
        </mxCell>
        <mxCell id="7XqZdIhTyuAvpvpUgryh-16" value="운동기구쪽로&lt;br&gt;걸어간다&amp;nbsp;" style="ellipse;whiteSpace=wrap;html=1;" parent="1" vertex="1">
          <mxGeometry x="449.75" y="2370" width="90" height="50" as="geometry" />
        </mxCell>
        <mxCell id="7XqZdIhTyuAvpvpUgryh-17" value="" style="edgeStyle=orthogonalEdgeStyle;rounded=0;orthogonalLoop=1;jettySize=auto;html=1;" parent="1" source="7XqZdIhTyuAvpvpUgryh-18" target="7XqZdIhTyuAvpvpUgryh-19" edge="1">
          <mxGeometry relative="1" as="geometry" />
        </mxCell>
        <mxCell id="7XqZdIhTyuAvpvpUgryh-18" value="이쁜 꽃을 발견한다" style="ellipse;whiteSpace=wrap;html=1;" parent="1" vertex="1">
          <mxGeometry x="286.5" y="2290" width="111.5" height="50" as="geometry" />
        </mxCell>
        <mxCell id="7XqZdIhTyuAvpvpUgryh-19" value="사진을 찍는다" style="ellipse;whiteSpace=wrap;html=1;" parent="1" vertex="1">
          <mxGeometry x="424.5" y="2290" width="80" height="50" as="geometry" />
        </mxCell>
        <mxCell id="7XqZdIhTyuAvpvpUgryh-20" style="edgeStyle=orthogonalEdgeStyle;rounded=0;orthogonalLoop=1;jettySize=auto;html=1;exitX=0.5;exitY=1;exitDx=0;exitDy=0;" parent="1" source="7XqZdIhTyuAvpvpUgryh-4" target="7XqZdIhTyuAvpvpUgryh-4" edge="1">
          <mxGeometry relative="1" as="geometry" />
        </mxCell>
        <mxCell id="7XqZdIhTyuAvpvpUgryh-21" value="" style="edgeStyle=orthogonalEdgeStyle;rounded=0;orthogonalLoop=1;jettySize=auto;html=1;" parent="1" source="7XqZdIhTyuAvpvpUgryh-22" target="7XqZdIhTyuAvpvpUgryh-24" edge="1">
          <mxGeometry relative="1" as="geometry" />
        </mxCell>
        <mxCell id="7XqZdIhTyuAvpvpUgryh-22" value="트랙을 다시 걷는다" style="ellipse;whiteSpace=wrap;html=1;" parent="1" vertex="1">
          <mxGeometry x="1029.4199999999998" y="2021.43" width="111" height="50" as="geometry" />
        </mxCell>
        <mxCell id="7XqZdIhTyuAvpvpUgryh-23" value="" style="edgeStyle=orthogonalEdgeStyle;rounded=0;orthogonalLoop=1;jettySize=auto;html=1;" parent="1" edge="1">
          <mxGeometry relative="1" as="geometry">
            <mxPoint x="1249.4199600475433" y="2046.464482758621" as="sourcePoint" />
            <mxPoint x="1268.4199999999998" y="2046.43" as="targetPoint" />
          </mxGeometry>
        </mxCell>
        <mxCell id="7XqZdIhTyuAvpvpUgryh-24" value="시계를 본다" style="ellipse;whiteSpace=wrap;html=1;" parent="1" vertex="1">
          <mxGeometry x="1164.4199999999998" y="2021.43" width="84" height="50" as="geometry" />
        </mxCell>
        <mxCell id="7XqZdIhTyuAvpvpUgryh-25" value="산책을 종료한다" style="ellipse;whiteSpace=wrap;html=1;" parent="1" vertex="1">
          <mxGeometry x="1268.4199999999998" y="2021.43" width="100" height="50" as="geometry" />
        </mxCell>
        <mxCell id="7XqZdIhTyuAvpvpUgryh-26" value="" style="edgeStyle=orthogonalEdgeStyle;rounded=0;orthogonalLoop=1;jettySize=auto;html=1;" parent="1" source="7XqZdIhTyuAvpvpUgryh-27" target="7XqZdIhTyuAvpvpUgryh-12" edge="1">
          <mxGeometry relative="1" as="geometry" />
        </mxCell>
        <mxCell id="7XqZdIhTyuAvpvpUgryh-27" value="힘들다고 느낀다" style="ellipse;whiteSpace=wrap;html=1;" parent="1" vertex="1">
          <mxGeometry x="532.4200000000001" y="2022.43" width="100" height="50" as="geometry" />
        </mxCell>
        <mxCell id="7XqZdIhTyuAvpvpUgryh-28" value="" style="edgeStyle=orthogonalEdgeStyle;rounded=0;orthogonalLoop=1;jettySize=auto;html=1;" parent="1" edge="1">
          <mxGeometry relative="1" as="geometry">
            <mxPoint x="419.74993816881715" y="2395.0344827586205" as="sourcePoint" />
            <mxPoint x="449.75" y="2395" as="targetPoint" />
          </mxGeometry>
        </mxCell>
        <mxCell id="7XqZdIhTyuAvpvpUgryh-29" value="운동기구를 찾는다" style="ellipse;whiteSpace=wrap;html=1;" parent="1" vertex="1">
          <mxGeometry x="296.75" y="2370" width="130" height="50" as="geometry" />
        </mxCell>
        <mxCell id="7XqZdIhTyuAvpvpUgryh-30" value="" style="edgeStyle=orthogonalEdgeStyle;rounded=0;orthogonalLoop=1;jettySize=auto;html=1;" parent="1" edge="1">
          <mxGeometry relative="1" as="geometry">
            <mxPoint x="263.7499619500413" y="2394.5044827586207" as="sourcePoint" />
            <mxPoint x="293.75006183118285" y="2394.5044827586207" as="targetPoint" />
          </mxGeometry>
        </mxCell>
        <mxCell id="7XqZdIhTyuAvpvpUgryh-31" value="산책 후 운동한다&amp;nbsp;" style="ellipse;whiteSpace=wrap;html=1;" parent="1" vertex="1">
          <mxGeometry x="156.75" y="2370" width="106.25" height="50" as="geometry" />
        </mxCell>
        <mxCell id="7XqZdIhTyuAvpvpUgryh-32" value="&lt;span style=&quot;color: rgb(255, 41, 8); font-family: Helvetica; font-size: 12px; font-style: normal; font-variant-ligatures: normal; font-variant-caps: normal; font-weight: 400; letter-spacing: normal; orphans: 2; text-align: left; text-indent: 0px; text-transform: none; widows: 2; word-spacing: 0px; -webkit-text-stroke-width: 0px; background-color: rgb(251, 251, 251); text-decoration-thickness: initial; text-decoration-style: initial; text-decoration-color: initial; float: none; display: inline !important;&quot;&gt;&amp;nbsp; &amp;nbsp; 주제&amp;nbsp; :&amp;nbsp; 날씨가 맑을 때 천호공원에서 산책하고 운동한다&lt;br&gt;&lt;br&gt;&lt;br&gt;&amp;nbsp; &amp;nbsp;&lt;br&gt;&lt;/span&gt;" style="text;whiteSpace=wrap;html=1;fillColor=#f5f5f5;fontColor=#333333;strokeColor=#666666;" parent="1" vertex="1">
          <mxGeometry x="10" y="1820" width="340" height="30" as="geometry" />
        </mxCell>
        <mxCell id="7XqZdIhTyuAvpvpUgryh-33" value="운동기구로&lt;br&gt;운동한다" style="ellipse;whiteSpace=wrap;html=1;" parent="1" vertex="1">
          <mxGeometry x="570.25" y="2370" width="90" height="50" as="geometry" />
        </mxCell>
        <mxCell id="7XqZdIhTyuAvpvpUgryh-34" value="" style="edgeStyle=orthogonalEdgeStyle;rounded=0;orthogonalLoop=1;jettySize=auto;html=1;" parent="1" source="7XqZdIhTyuAvpvpUgryh-35" target="7XqZdIhTyuAvpvpUgryh-22" edge="1">
          <mxGeometry relative="1" as="geometry" />
        </mxCell>
        <mxCell id="7XqZdIhTyuAvpvpUgryh-35" value="휴식을 취한다" style="ellipse;whiteSpace=wrap;html=1;" parent="1" vertex="1">
          <mxGeometry x="898.42" y="2027.43" width="111" height="38.57" as="geometry" />
        </mxCell>
        <mxCell id="7XqZdIhTyuAvpvpUgryh-36" value="" style="edgeStyle=orthogonalEdgeStyle;rounded=0;orthogonalLoop=1;jettySize=auto;html=1;" parent="1" source="7XqZdIhTyuAvpvpUgryh-37" target="7XqZdIhTyuAvpvpUgryh-39" edge="1">
          <mxGeometry relative="1" as="geometry" />
        </mxCell>
        <mxCell id="7XqZdIhTyuAvpvpUgryh-37" value="개를 발견한다" style="ellipse;whiteSpace=wrap;html=1;" parent="1" vertex="1">
          <mxGeometry x="290" y="2193.07" width="90" height="53.37" as="geometry" />
        </mxCell>
        <mxCell id="7XqZdIhTyuAvpvpUgryh-38" value="" style="edgeStyle=orthogonalEdgeStyle;rounded=0;orthogonalLoop=1;jettySize=auto;html=1;" parent="1" source="7XqZdIhTyuAvpvpUgryh-39" target="7XqZdIhTyuAvpvpUgryh-41" edge="1">
          <mxGeometry relative="1" as="geometry" />
        </mxCell>
        <mxCell id="7XqZdIhTyuAvpvpUgryh-39" value="개 주인에게&amp;nbsp;&lt;br&gt;말을 건다" style="ellipse;whiteSpace=wrap;html=1;" parent="1" vertex="1">
          <mxGeometry x="410" y="2193.07" width="90" height="53.37" as="geometry" />
        </mxCell>
        <mxCell id="7XqZdIhTyuAvpvpUgryh-40" value="개를 쓰다듬는다" style="ellipse;whiteSpace=wrap;html=1;" parent="1" vertex="1">
          <mxGeometry x="531.5" y="2140" width="100" height="50" as="geometry" />
        </mxCell>
        <mxCell id="7XqZdIhTyuAvpvpUgryh-41" value="개 사진 찍는다" style="ellipse;whiteSpace=wrap;html=1;" parent="1" vertex="1">
          <mxGeometry x="531.5" y="2201.5" width="100" height="37.5" as="geometry" />
        </mxCell>
        <mxCell id="7XqZdIhTyuAvpvpUgryh-42" value="개 주인과 잠깐 &lt;br&gt;같이 걷는다" style="ellipse;whiteSpace=wrap;html=1;" parent="1" vertex="1">
          <mxGeometry x="516" y="2246.44" width="115.5" height="53.37" as="geometry" />
        </mxCell>
        <mxCell id="7XqZdIhTyuAvpvpUgryh-43" value="" style="endArrow=classic;html=1;rounded=0;exitX=1;exitY=0;exitDx=0;exitDy=0;" parent="1" source="7XqZdIhTyuAvpvpUgryh-39" edge="1">
          <mxGeometry width="50" height="50" relative="1" as="geometry">
            <mxPoint x="481.5" y="2220" as="sourcePoint" />
            <mxPoint x="531.5" y="2170" as="targetPoint" />
          </mxGeometry>
        </mxCell>
        <mxCell id="7XqZdIhTyuAvpvpUgryh-44" value="" style="endArrow=classic;html=1;rounded=0;" parent="1" edge="1">
          <mxGeometry width="50" height="50" relative="1" as="geometry">
            <mxPoint x="486.5" y="2239" as="sourcePoint" />
            <mxPoint x="516.5" y="2269" as="targetPoint" />
          </mxGeometry>
        </mxCell>
        <mxCell id="7XqZdIhTyuAvpvpUgryh-45" value="인터벌로 걷는다" style="ellipse;whiteSpace=wrap;html=1;" parent="1" vertex="1">
          <mxGeometry x="410" y="2112.43" width="96.92" height="50" as="geometry" />
        </mxCell>
        <mxCell id="7XqZdIhTyuAvpvpUgryh-46" value="&amp;lt;&amp;lt;extend&amp;gt;&amp;gt;" style="html=1;verticalAlign=bottom;labelBackgroundColor=none;endArrow=open;endFill=0;dashed=1;rounded=0;entryX=0.5;entryY=1;entryDx=0;entryDy=0;" parent="1" source="7XqZdIhTyuAvpvpUgryh-45" target="7XqZdIhTyuAvpvpUgryh-4" edge="1">
          <mxGeometry x="-0.4991" y="1" width="160" relative="1" as="geometry">
            <mxPoint x="508.37999999999954" y="1985.5" as="sourcePoint" />
            <mxPoint x="479" y="2060" as="targetPoint" />
            <mxPoint y="1" as="offset" />
          </mxGeometry>
        </mxCell>
        <mxCell id="7XqZdIhTyuAvpvpUgryh-47" value="" style="endArrow=none;html=1;rounded=0;entryX=0.5;entryY=1;entryDx=0;entryDy=0;exitX=0.5;exitY=0;exitDx=0;exitDy=0;" parent="1" source="7XqZdIhTyuAvpvpUgryh-2" target="7XqZdIhTyuAvpvpUgryh-6" edge="1">
          <mxGeometry width="50" height="50" relative="1" as="geometry">
            <mxPoint x="218.57432000000009" y="2206.5" as="sourcePoint" />
            <mxPoint x="302.42" y="2062.43" as="targetPoint" />
          </mxGeometry>
        </mxCell>
        <mxCell id="7XqZdIhTyuAvpvpUgryh-48" value="" style="endArrow=none;html=1;rounded=0;entryX=0;entryY=0.491;entryDx=0;entryDy=0;entryPerimeter=0;" parent="1" edge="1">
          <mxGeometry width="50" height="50" relative="1" as="geometry">
            <mxPoint x="249" y="2217.48" as="sourcePoint" />
            <mxPoint x="290" y="2217.5046700000003" as="targetPoint" />
            <Array as="points">
              <mxPoint x="260" y="2217.48" />
            </Array>
          </mxGeometry>
        </mxCell>
        <mxCell id="7XqZdIhTyuAvpvpUgryh-49" value="" style="endArrow=none;html=1;rounded=0;entryX=0;entryY=0.5;entryDx=0;entryDy=0;exitX=0.5;exitY=1;exitDx=0;exitDy=0;" parent="1" target="7XqZdIhTyuAvpvpUgryh-18" edge="1">
          <mxGeometry width="50" height="50" relative="1" as="geometry">
            <mxPoint x="197.81500000000005" y="2243.07" as="sourcePoint" />
            <mxPoint x="288" y="2353.82" as="targetPoint" />
          </mxGeometry>
        </mxCell>
        <mxCell id="7XqZdIhTyuAvpvpUgryh-50" value="" style="endArrow=none;html=1;rounded=0;" parent="1" edge="1">
          <mxGeometry width="50" height="50" relative="1" as="geometry">
            <mxPoint x="80" y="2310" as="sourcePoint" />
            <mxPoint x="151" y="2223" as="targetPoint" />
          </mxGeometry>
        </mxCell>
        <mxCell id="7XqZdIhTyuAvpvpUgryh-51" value="" style="endArrow=none;html=1;rounded=0;entryX=0.064;entryY=0.332;entryDx=0;entryDy=0;entryPerimeter=0;" parent="1" target="7XqZdIhTyuAvpvpUgryh-31" edge="1">
          <mxGeometry width="50" height="50" relative="1" as="geometry">
            <mxPoint x="80" y="2310" as="sourcePoint" />
            <mxPoint x="160" y="2380" as="targetPoint" />
          </mxGeometry>
        </mxCell>
      </root>
    </mxGraphModel>
  </diagram>
</mxfile>
